<?xml version="1.0" encoding="UTF-8"?>
<svg id="Layer_1" data-name="Layer 1" xmlns="http://www.w3.org/2000/svg" viewBox="0 0 645.68 97.66">
  <defs>
    <style>
      .cls-1 {
        fill: #231f20;
      }
    </style>
  </defs>
  <path class="cls-1" d="M111.62,80.96c2.28,0,4.25-.83,5.91-2.49s2.49-3.63,2.49-5.91v-22.85c0-.26.08-.47.24-.63.16-.16.34-.24.54-.24h17.87c.26,0,.47.08.63.24.16.16.24.38.24.63v22.85c0,6.9-2.46,12.81-7.37,17.72-4.92,4.92-10.86,7.37-17.82,7.37H27.93c-7.75,0-14.34-2.72-19.78-8.15-5.44-5.44-8.15-12.03-8.15-19.78V27.93c0-7.75,2.72-14.34,8.15-19.78C13.59,2.72,20.18,0,27.93,0h110.74c.26,0,.47.08.63.24.16.16.24.38.24.63v15.04c0,.2-.08.38-.24.54-.16.16-.38.24-.63.24H27.93c-2.34,0-4.33.83-5.96,2.49-1.63,1.66-2.44,3.63-2.44,5.91v47.46c0,2.28.81,4.25,2.44,5.91,1.63,1.66,3.61,2.49,5.96,2.49h83.69Z"/>
  <path class="cls-1" d="M193.76,96.88c0,.2-.08.38-.24.54-.16.16-.38.24-.63.24h-17.87c-.2,0-.38-.08-.54-.24-.16-.16-.24-.34-.24-.54V.88c0-.26.08-.47.24-.63.16-.16.34-.24.54-.24h17.87c.26,0,.47.08.63.24.16.16.24.38.24.63v96Z"/>
  <path class="cls-1" d="M248.22,96.88c0,.2-.08.38-.24.54-.16.16-.38.24-.63.24h-17.87c-.2,0-.38-.08-.54-.24-.16-.16-.24-.34-.24-.54V.88c0-.26.08-.47.24-.63.16-.16.34-.24.54-.24h17.87c.26,0,.47.08.63.24.16.16.24.38.24.63v96Z"/>
  <path class="cls-1" d="M302.67,96.88c0,.2-.08.38-.24.54-.16.16-.38.24-.63.24h-17.87c-.2,0-.38-.08-.54-.24-.16-.16-.24-.34-.24-.54V.88c0-.26.08-.47.24-.63.16-.16.34-.24.54-.24h17.87c.26,0,.47.08.63.24.16.16.24.38.24.63v96Z"/>
  <path class="cls-1" d="M477.04,96.78c0,.26-.08.47-.23.63-.16.16-.36.24-.61.24h-17.19c-.19,0-.36-.08-.52-.24-.16-.16-.23-.37-.23-.63V16.7h-10.33c-3.44,0-5.98,1.89-7.61,5.66l-25.36,74.71c-.13.39-.38.59-.75.59h-13.99c-.31,0-.56-.2-.75-.59l-25.26-74.71c-1.69-3.77-4.23-5.66-7.61-5.66h-10.33v80.08c0,.26-.08.47-.23.63-.16.16-.36.24-.61.24h-17.19c-.19,0-.36-.08-.52-.24-.16-.16-.23-.37-.23-.63V.88c0-.26.08-.47.23-.63.16-.16.33-.24.52-.24h34.56c.63,0,1.25.03,1.88.1,3.57.46,6.68,1.86,9.34,4.2,2.66,2.34,4.59,5.31,5.78,8.89l17.47,51.95,17.37-51.95c1.25-3.58,3.21-6.56,5.87-8.94,2.66-2.38,5.78-3.76,9.34-4.15.63-.06,1.22-.1,1.78-.1h34.56c.25,0,.45.08.61.24.16.16.23.38.23.63v95.9Z"/>
  <path class="cls-1" d="M617.65,16.7c-2.54,0-4.72,1.04-6.54,3.12l-23.54,29,23.54,29c1.82,2.02,4,3.03,6.54,3.03h27.25c.2,0,.37.08.54.24.16.16.24.38.24.63v15.04c0,.26-.08.47-.24.63-.16.16-.34.24-.54.24h-28.91c-7.55,0-14.06-3.09-19.53-9.28l-20.51-25.29-20.51,25.29c-5.47,6.19-11.98,9.28-19.53,9.28h-28.91c-.2,0-.38-.08-.54-.24-.16-.16-.24-.37-.24-.63v-15.04c0-.26.08-.47.24-.63.16-.16.34-.24.54-.24h27.25c2.54,0,4.72-1.01,6.54-3.03l23.54-29-23.54-29c-1.82-2.08-3.97-3.12-6.45-3.12h-27.34c-.2,0-.38-.08-.54-.24-.16-.16-.24-.34-.24-.54V.78c0-.2.08-.37.24-.54.16-.16.34-.24.54-.24h28.91c7.55,0,14.06,3.09,19.53,9.28l20.51,25.29,20.61-25.29c5.4-6.18,11.88-9.28,19.43-9.28h28.91c.2,0,.37.08.54.24.16.16.24.34.24.54v15.14c0,.2-.08.38-.24.54-.16.16-.34.24-.54.24h-27.25Z"/>
</svg>